<svg xmlns="http://www.w3.org/2000/svg" xmlns:xlink="http://www.w3.org/1999/xlink" width="1920" height="669" viewBox="0 0 1920 669">
  <defs>
    <clipPath id="clip-path">
      <rect id="Rectangle_10952" data-name="Rectangle 10952" width="304" height="114" transform="translate(1616 625)" fill="#00529f"/>
    </clipPath>
  </defs>
  <g id="Group_19359" data-name="Group 19359" transform="translate(0 -70)">
    <g id="Group_19358" data-name="Group 19358">
      <rect id="Rectangle_10952-2" data-name="Rectangle 10952" width="1920" height="669" transform="translate(0 70)" fill="#00529f"/>
      <g id="Mask_Group_1" data-name="Mask Group 1" clip-path="url(#clip-path)">
        <path id="contact-shape2" d="M327.05,21.553l-.022,21.021,11.944,6.941,0,2.553-14.143-8.22.025-23.572,14.16-8.19,0,2.552ZM323.082,15.2l-4.154-2.415.005-4.821,4.16-2.406,4.155,2.415-.005,4.821Zm.01-9.12-3.709,2.146,0,4.3,3.7,2.153,3.71-2.145,0-4.3ZM291.7,43.96,273.826,33.57l.014-12.769-3.264,1.888-9.127-5.305-.005,4.679-12.429,7.19L236.6,22.037l.015-14.407L249.044.441l12.35,7.178V6.681l9.2-5.324,9.19,5.344,0,2.693,11.961-6.918,17.876,10.39L309.6,33.608ZM249.044.83l-12.094,7-.015,14.017,12.079,7.021,12.093-6.994.015-14.017Zm21.554.815-8.953,5.181L261.633,17.2l8.943,5.2,3.264-1.887.008-7.685,5.688-3.29,0-2.693Zm3.726,18.587,5.2-3.01.007-7.123-5.2,3.009Zm17.421-17.2L279.784,9.955l-.008,7.411-5.452,3.155-.014,12.769L291.7,43.4l17.414-10.072.021-20.181Zm3.814,4.838-.937-.546V6.241l.939-.543.937.545V7.331Zm0-2.058-.837.484v.97l.836.486.837-.484V6.3ZM271.682,55.183l-.008,7.205-6.218,3.6-6.209-3.609.008-7.206,6.217-3.6Zm-11.755.377-.007,6.425,5.537,3.218L271,62l.007-6.425-5.539-3.218Zm3.67-13.621,0,4.529-3.908,2.262-3.9-2.271,0-4.309-.251.146-2.263-1.315,0-2.625,2.266-1.311,2.262,1.316,0,2.4,1.9-1.1Zm-8.059-4.822-2.2,1.275,0,2.555,2.2,1.279.251-.146V41.93l1.953-1.129,0-2.4Zm.669,5.059,0,4.039,3.482,2.024,3.485-2.016,0-4.039-3.481-2.024Zm9.254,34.11,6.444-3.728,6.856,3.985.013-12.47,17.058-9.866-1.366-.792,0-1.951,1.683-.973,1.68.976,0,1.584,11.345-6.561,30.362,17.649L339.5,99.37l-30.4,17.583-20.328-11.816L271.86,114.92l-8.625-5.014-28.208,16.315-30.364-17.648.008-7.672-7.7-4.476-.008,7.477-26.75,15.472L143.5,103.844l.025-23.383L136.2,76.2l.011-11.009L125,58.678l-.007,6.994L112.5,72.9l12.118,7.044L124.6,99.816l-17.149,9.923-17.129-9.96L90.338,79.9l11.063-6.4L87.856,65.633,87.879,44.1l18.58-10.745,18.458,10.729,0-1.4,4.278-2.476.009-8.682,13.714-7.932,13.7,7.961L156.6,44.975l16.654,9.681,0-1.4,6.106-3.533-1.552-.9.015-13.8,2.506-1.45-.554-.321.022-20.172L197.208,3.008l17.386,10.105-.007,6.384,2.8-1.621,11.46,6.661-.015,13.3-8.6,4.974,3.1,1.8-.005,5.1,11.085,6.443.681-.394,30.362,17.649Zm-173.269,4.7L92.173,98.7l15.275,8.882,15.293-8.849.019-17.724-12.117-7.043-4.231,2.447-3.156-1.835Zm17.947-7.3-2.654-1.543-3.728,2.156,2.655,1.543Zm-3.682-39.742L88.381,44.392l-.022,20.95L101.9,73.215l5.585-3.23L112,72.605l12.49-7.225.022-20.95Zm155.682,72.79.03-27.734-7.846,4.539-.022,20.375,6.341,3.686ZM196.272,73.319l-1.309-.76-2.382,1.377-.02,19.085,3.688,2.144Zm-.956-1.4,5.043-2.917.012-10.646-7.778,4.5-.008,7.477Zm-2.732-.748,0,2.33,2.011-1.163ZM129.189,47.419l.007-6.782L125.29,42.9l-.016,15.51,10.935,6.357.011-10.093,2.729-1.579Zm13.7,7.961-3.435-2-2.729,1.578-.01,10.093,1.927,1.12,13.38-7.74.009-8.342Zm9.142-5.717,0-3.555-12.209,7.061,3.064,1.781ZM129.56,47.2l9.76,5.673,12.711-7.352,0-2.6-13.363-7.771-9.1,5.268Zm13.359-23.182-13.342,7.717-.009,8.252,9.1-5.268,13.735,7.988,0,2.6,2.395-1.385,1.435.834.014-12.992Zm9.48,25.427,3.832-2.216,0-1.891-1.435-.834L152.4,45.893Zm4.2-3.892,0,1.891-4.2,2.431-.009,8.773-13.751,7.955-1.928-1.12L136.7,75.912l6.822,3.965.007-7.034,26.75-15.473,2.567,1.492,0-3.861ZM144.245,80.3l10.509,6.108,18.074-10.455.017-16.249-2.567-1.492L144.252,73.263Zm29.086-4.055L154.754,86.989l-10.509-6.108-.024,22.545,25.994,15.108,26.026-15.053L196.248,96l-4.411-2.564.02-19.084-4.878,2.822-13.641-7.93Zm.284-7.266,13.365,7.769,4.878-2.822,0-3.169-18.237-10.6Zm.016-15.51-.006,5.847,18.237,10.6.008-7.476,8.5-4.918,0-4.025-3.4-1.975-7.273,4.208-9.968-5.794Zm23.72-2.162,3.4,1.976,0,4.025,10.163-5.878.007-6.83,3.339-1.932-7.929-4.61-4.707,2.722-.008,8.064Zm3.95-16.075L189.735,28.5l-7.2,4.163,14.628,8.5,4.13-2.389Zm-4.644,16.1-9.644-5.609L180.06,49.75l9.647,5.607ZM178.15,35.206l-.015,13.425,1.552.9,7.326-4.238,10.016,5.824,4.258-2.463.008-7.691-4.131,2.389-16.509-9.6ZM197.206,5.192,181.684,14.17l-.019,17.988.553.321,7.518-4.349,11.888,6.915,0,3.549,4.283-2.477.012-11.6,6.788-3.925.007-6.384Zm9.94,30.207,5.545-3.207.011-10.165-5.545,3.207Zm20.45,1.715.013-11.858-10.22-5.94-2.8,1.621-.013,12.349-7.007,4.052,7.929,4.61L217.13,41,219,42.088Zm-11.428,5.225,1.2.7.963-.557-1.2-.695Zm3.4.859-2.205,1.276-2.437-1.416-3.338,1.931-.007,6.051,7.041-4.072,4.044,2.35,0-4.317Zm-7.588,8.449,5.137,2.986,5.545-3.206v-1.27l-4.044-2.351Zm11.356-1.1v1.269l-6.219,3.6-5.809-3.376-10.563,6.109-.012,11.077-5.043,2.917L197,72.9l-.024,22.685,7.7,4.476.029-26.721,29-16.77ZM235.1,59.572l-27.11,15.68-.029,26.721,10.6,6.159,26.026-15.054.029-27.976Zm10.236,5.95L245.3,93.5l-26.75,15.472-10.6-6.159,0,3.859,27.077,15.738L259.948,108l-6.341-3.685.023-21.18,8.54-4.941,0-2.88Zm50.817-14.978-1.638.947,0,1.9,1.366.792,1.907-1.1,0-1.584Zm8.4,2.435,0,3.808,3.482,2.025,3.485-2.017,0-4.04-3.282-1.908Zm4.557,60.161L336.213,97.46l.033-31.417L309.172,50.3l-.515.3,3.282,1.908,0,4.529L308.025,59.3l-3.9-2.27,0-3.808L282.061,65.984l-.014,12.47,8.111,4.715-.02,18.946Zm-19.659-11.427.019-18.142-7.418-4.312L282.027,97.4Zm-24.018,6.927-1.5.866,7.932,4.611,16.217-9.38L278.736,99.3l.024-21.957L271.9,73.363,265.46,77.09Zm-41.1-56.855,1.4.814,0,1.626-1.4.812-1.4-.815,0-1.626Zm0,3.076,1.251-.724,0-1.45-1.249-.726-1.251.723,0,1.45ZM116.024,58.2,114,57.021l0-2.344,2.024-1.172,2.021,1.176,0,2.345Zm.005-4.436L114.224,54.8l0,2.092,1.8,1.047,1.8-1.043,0-2.092Zm.135,34.305,3.381,1.966,0,3.924-3.384,1.958-3.382-1.965,0-3.924Zm-.008,7.741L119.45,93.9l0-3.817-3.289-1.912-3.3,1.9,0,3.818ZM232.024,43.677l-.931-.541v-1.08l.932-.54.93.542v1.08ZM223.1,9.989,221.749,9.2l0-1.57L223.1,6.85l1.353.786,0,1.57Zm0-2.969-1.207.7v1.4l1.205.7,1.208-.7v-1.4ZM187.479,4.058l-1.753-1.02,0-2.034L187.483-.01l1.753,1.019,0,2.034Zm-11.5,40.406-1.4-.814,0-1.626,1.4-.811,1.4.814,0,1.626Zm0-3.075-1.251.723,0,1.451,1.249.726,1.251-.724,0-1.45Zm-8.6-21.482-2.169-1.262,0-2.518,2.172-1.256,2.17,1.26,0,2.518Zm.005-4.968-2.112,1.223,0,2.449,2.11,1.228,2.115-1.223,0-2.45ZM167.3,43.6l0,1.757-1.516.876-1.514-.88,0-1.757,1.516-.877Zm-2.991,1.73,1.473.856,1.475-.853,0-1.71-1.473-.857-1.475.854ZM148.672,10.6l-2.641-1.535,0-3.063,2.644-1.528,2.64,1.534,0,3.063Zm.006-5.8L146.32,6.169l0,2.73,2.354,1.369L151.029,8.9l0-2.731ZM129.651,20.84l-4.934-2.868.006-5.725,4.94-2.857,4.934,2.867-.006,5.724Zm.011-10.83-4.4,2.549-.006,5.1,4.4,2.558,4.406-2.548.005-5.1Zm-6.417,31.724-1.079-.627V39.853l1.081-.625,1.08.628v1.253Zm0-2.471-1.052.608,0,1.219,1.05.611,1.053-.608V39.873Zm-57.137,87.3L48.337,116.229l.022-20.622,2.317-1.341-8.7-5.058L42,69.333l17.15-9.919L76.276,69.37l-.021,19.875-1.672.967,9.341,5.433L83.9,116.268Zm-6.966-65L43.852,70.411l-.019,17.723,8.7,5.059,13.624-7.882,6.573,3.823,1.671-.966.019-17.724ZM53.013,93.473l6.094,3.543,13.141-7.6-6.092-3.543ZM74.1,90.491l-15,8.678-7.948-4.621L48.84,95.886l-.021,20.065L66.113,126l17.309-10.014.021-20.065Zm6.918,7.485-1.392-.809,0-1.615,1.393-.806,1.391.809,0,1.614Zm-4.537-36.15L73.863,60.3l0-3.04,2.622-1.516,2.62,1.522,0,3.04Zm-8.8-14.2L65.662,46.45l0-2.345,2.024-1.17,2.022,1.174,0,2.345Zm0-4.436-1.8,1.043,0,2.092,1.8,1.047,1.8-1.043,0-2.092ZM35.166,54.026,32.547,52.5l0-3.04,2.622-1.517,2.62,1.522,0,3.04ZM36,67.377l0,3.764L32.749,73.02l-3.242-1.886,0-3.764,3.246-1.878ZM29.6,71.083l3.154,1.835,3.16-1.828,0-3.662-3.156-1.834L29.6,67.421ZM35.561,105.7l-3.828,2.215.9.522,0,2.626-2.266,1.311L28.1,111.056v-1.042l-10.329,5.976L0,105.659.018,85.036l17.8-10.3L35.583,85.075Zm-5.2,6.6,2.2-1.275,0-2.555-.9-.522-3.511,2.031v1.042Zm.828-4.631-.823-.478-2.205,1.275v.956ZM17.815,75.3.5,85.315.478,105.38l17.294,10.051L28.1,109.455v-1.026l2.267-1.31.884.513,3.828-2.215L35.1,85.353ZM4.781,59.109.835,56.815l0-4.578,3.951-2.284,3.945,2.293-.005,4.578Zm.01-8.661L1.267,52.486l0,4.082,3.52,2.046L8.3,56.575l0-4.082Zm124.573,54.869,1.391.809,0,1.615-1.393.805-1.392-.808,0-1.615Zm35.142,14.294,3.38,1.965,0,3.924-3.384,1.958-3.382-1.965,0-3.923Zm-.008,7.741,3.293-1.905,0-3.817-3.289-1.912-3.3,1.906,0,3.817Z" transform="translate(1580.004 640.229)" fill="#0cb8b6" fill-rule="evenodd" opacity="0.122"/>
      </g>
    </g>
    <g id="Group_19045" data-name="Group 19045">
      <path id="contact-shape1" d="M449.28,28.832l-.029,27.288L425.7,69.744,402.191,56.07l.03-27.288,5.066-2.931L406.1,25.16l0-3.475,3-1.734,2.995,1.74v1.378l13.667-7.907ZM409.1,20.045l-2.917,1.687,0,3.381,1.188.691,4.646-2.688V21.738ZM408,26.174l1.089.633,2.918-1.687V23.855Zm4.089-2.365v1.358l-3,1.735-1.17-.681-5.066,2.931L402.828,55.7,425.7,69l22.912-13.254.028-26.55L425.759,15.9Zm-1.862,50.708,0,4.979-4.3,2.486-4.292-2.495.006-4.979,4.3-2.486Zm-8.476,4.9,4.176,2.427,4.179-2.419,0-4.845-4.173-2.427-4.181,2.418Zm4.455,19.749,0,4.023-3.47,2.007-3.467-2.015,0-4.023,3.471-2.008ZM393.7,76.9,371.011,90.023,348.347,76.85l.028-26.3,2.212-1.281-12.361-7.188.03-27.288L361.8,1.174l23.52,13.671-.029,27.287-3.066,1.774L393.732,50.6ZM384.65,41.763l.028-26.55-22.883-13.3-22.9,13.25-.028,26.55,12.36,7.188,19.843-11.481,10.517,6.115Zm-30.974,8.566,8.061,4.688,17.391-10.06-8.064-4.688Zm26.088-5L361.737,55.757l-8.7-5.06-2.211,1.279L350.8,75.429l20.211,11.748,20.237-11.7.026-23.452Zm-37.7-2.056-1.84-1.071,0-2.136L342.07,39l1.842,1.07,0,2.136Zm-9.072,67.016-24.585,14.219-24.424-14.2,0,1.857-5.662,3.276-.012,11.488-18.146,10.5-18.127-10.535.019-17.758L220.02,96.32l0,1.856-8.08,4.676,2.054,1.193-.019,18.258-3.316,1.917.733.426-.029,26.692L188.33,164.659l-23.005-13.371.009-8.447-3.709,2.145-15.164-8.814.019-17.6,11.374-6.582-4.1-2.385.007-6.744L139.089,94.34l-.9.522L98.012,71.508l0-3.81L89.49,72.631l-9.071-5.273-.017,16.5L57.829,96.914l1.807,1.049,0,2.58-2.227,1.287-2.224-1.292v-2.1l-15.011,8.682L0,83.773l.05-46.619L40.273,13.887l26.9,15.635L89.549,16.579l11.413,6.634L138.287,1.624l40.177,23.352-.01,10.152,10.189,5.923.01-9.894,35.4-20.473L259.4,31.233l-.033,30.941,9.691,5.633-.016,14.567L283.879,91l.01-9.255,16.527-9.559-16.034-9.319.028-26.3L307.1,23.434l22.665,13.179-.028,26.3L315.1,71.378,333.024,81.8ZM57.407,101.76l2.167-1.252,0-2.511-1.807-1.049-2.524,1.46,0,2.1ZM46.3,98.539l0-5.038L41.7,90.822l-4.612,2.669-.006,5.344,4.342,2.524Zm-6.029-79.6L4.4,39.682,4.354,81.253l35.825,20.824.682-.395-4.342-2.524.006-5.994L41.7,90.172l5.167,3-.006,5.038L76.051,81.331l.018-16.5L65.337,58.592l.027-25.07ZM66.281,34.054,66.255,58.06l9.816,5.705L76.1,39.759Zm23.267-16.41L68.09,30.055,80.451,37.24,80.42,66.294l9.071,5.272,8.527-4.932.044-41.744,1.982-1.146Zm188.293,88.535-12.915-7.506-16.82,9.728,0,3.439,17.682,10.283,12.048-6.97ZM260.209,95.36,264.753,98l3.611-2.088.014-13.355-2.551-1.482-17.7,10.241-.012,11.038Zm-12.1,7.565,0,4.7,16.155-9.343-4.054-2.356Zm12.052,33.93,17.655-10.212.012-10.92-12.047,6.971L247.61,112.125l0-3.44-3.168,1.833-1.9-1.1-.018,17.189ZM247.62,103.21l-5.07,2.931,0,2.5,1.9,1.1,3.168-1.834ZM219.548,77.368,201.863,67.088l-6.454,3.734,0,4.193,24.131,14.027Zm-25.1-2.908,0-3.083-2.66,1.539Zm-3.615-.99-6.673,3.86-.015,14.086,10.291-5.951.01-9.894Zm28.694,24.421.008-7.737L195.4,76.127l-.011,9.894-11.249,6.506-.006,5.326,4.5,2.614,9.624-5.568,13.19,7.667Zm-31.387,2.86-4.495-2.613.006-5.326L170.2,100.589l-.01,9.038-4.418,2.555,10.492,6.1,6.228-3.6.011-10.671Zm-5.227,21.271,15.3,8.9,9.522-5.508-19.356-11.251-5.465,3.161Zm6.145-21.308,12.762,7.421,9.2-5.323-12.765-7.42Zm24.489,21.341.019-17.764-2.054-1.194-9.693,5.608L188.566,101l-5.634,3.26-.011,10.177,5.466-3.161,21.845,12.7Zm-25.215,39.716,20.538-11.88.026-23.8-.732-.426-9.948,5.755-15.73-9.149,0-4.7-5.668,3.278-.016,15.356-8.981,5.194-.009,8.446ZM175.18,121.8l-7.337,4.244-.015,13.451,7.337-4.244Zm-27.06-2.27-.017,15.692,13.523,7.86,3.709-2.145.017-16.341,9.271-5.362-10.492-6.1-2.164,1.253-2.473-1.437Zm15.122-6.913-1.582-.921-1.275.737,1.583.921Zm-4.5-1.138,2.918-1.689,3.224,1.875,4.418-2.555.009-8.006L160,106.493l-5.351-3.11-.006,5.712Zm10.04-11.179-6.8-3.952-7.338,4.243,0,1.68,5.351,3.11ZM138.193,89.814l35.872-20.748.038-35.356-14.02-8.149L125.645,45.48,125.606,82.5Zm-35.782-62.4-.039,36.7,10.382-6.006.029-26.961-8.39-4.877ZM138.281,6.67,105.311,25.74l8.39,4.877-.03,28.026-11.3,6.537,0,3.811,22.282,12.952.04-37.018,35.4-20.473L174.1,32.6l.006-5.106Zm50.328,65.508.032-30.017-10.189-5.923L178.414,71.6l-38.368,22.19,13.711,7.97v-1.68l8.229-4.758,7.687,4.467L183.652,91.7l.015-14.657,6.674-3.86Zm.958-.555L191.3,72.63l3.153-1.823.027-25.252L189.6,42.716Zm34.48-59.829L189.61,31.713l-.01,9.894L195.436,45l-.027,25.252,6.454-3.734L219.914,77.01l.01-9.255,24.581-14.219,13.906,8.083.032-29.832Zm-3.482,77.847,3.4,1.974L258.4,71.7l.01-9.308L244.5,54.307,220.589,68.14Zm38.8-26.7-.01,9.308-35.4,20.472-3.4-1.974-.006,5.109,21.5,12.5,0-2.5,5.561-3.216.012-11.609,18.2-10.526,2.551,1.482.015-13.795Zm9.675,20L269.029,96.3l-3.612,2.089,12.914,7.507-.01,8.972,5.169-2.991.022-20.522Zm58.243-21.46.025-23.452L307.1,26.281,286.864,37.99l-.025,23.452,16.034,9.321,5.6-3.238,4.177,2.427Zm-23.749,9.663,3.513,2.041,4.932-2.853-3.513-2.042Zm10.9.614-7.39,4.274-5.965-3.467-16.527,9.559-.03,27.721,23.886,13.885,23.92-13.833.029-27.721Zm-18.691,26.08-2.675-1.556,0-3.1,2.678-1.548,2.674,1.554,0,3.1Zm.006-5.87-2.388,1.38,0,2.768,2.385,1.387,2.389-1.382,0-2.768Zm-.185-39.859-4.473-2.6.006-5.192,4.479-2.591,4.475,2.6-.006,5.192Zm.011-10.244-4.358,2.521,0,5.051,4.352,2.53,4.36-2.52.006-5.052Zm-143.128,58.25L150.6,99.042l0-2.152,1.856-1.075,1.854,1.08,0,2.151Zm0-4.07-1.655.958,0,1.918,1.653.961,1.655-.957,0-1.919ZM278.1,29.285l-1.841-1.071,0-2.136,1.843-1.067,1.841,1.07,0,2.136ZM231.6,10.371l-4.473-2.6.006-5.192,4.478-2.592,4.476,2.6-.006,5.192Zm.01-10.242-4.357,2.52L227.249,7.7l4.352,2.53,4.361-2.52,0-5.051ZM16.522,140.12l.03-27.814-15.8-9.185,0-3.376,18.713,10.877-.033,31.191L.7,152.649l0-3.376Zm5.25,8.408,5.5,3.195-.007,6.379-5.5,3.184-5.5-3.2.007-6.379ZM21.759,160.6l4.908-2.839.006-5.688-4.9-2.85-4.91,2.839-.006,5.689ZM89.785,95.622l.01-9.534,8.228-4.758,8.216,4.775-.01,9.535L98,100.4Zm15.555-.5.01-8.5-7.327-4.258-7.338,4.243-.01,8.5L98,99.366Zm8.808,19.29,0,3.474-3,1.734-2.994-1.74,0-3.182-2.508,1.451-5.165-3,.006-5.993,5.172-2.994,5.166,3-.006,5.7.332-.193Zm-8.487-9.6-4.612,2.669-.006,5.345,4.606,2.677,4.612-2.667.006-5.344Zm5.161,8.151v.2l-2.584,1.494,0,3.182,2.912,1.693,2.917-1.687,0-3.38-2.913-1.693ZM63.3,110.472l23.653,13.749-.019,16.9,4.319-2.5,12.077,7.02.007-6.192,16.446-9.514,16.428,9.55-.02,19.063-16.448,9.513-16.342-9.5V159.8L91.22,166.845l-12.16-7.072,0-3.562-15.826,9.154L39.584,151.616l.029-27.446Zm56.444,57.07,16-9.256.019-18.548-15.983-9.29-16,9.257-.019,18.548Zm-28.52-1.079,11.847-6.855.015-13.731L91.249,139l-4.319,2.5-.011,10.168-7.526,4.354,0,3.563Zm-4.93-24.593L79.4,145.852l-.01,9.424,6.885-3.983ZM63.238,164.622l15.826-9.154.01-9.807,7.215-4.174.018-16.9L63.3,111.215,40.253,124.542l-.028,26.7Zm-5.047-6.4,1.24.721v1.44l-1.242.717-1.24-.721v-1.44Zm0,2.724,1.107-.641V159.02l-1.106-.643-1.107.641V160.3Zm84.072-50.1,1.232.717v1.429l-1.234.714-1.23-.717v-1.429Zm11.807,44.577,1.789,1.04,0,2.076-1.791,1.036-1.79-1.04,0-2.076Zm0,3.927,1.6-.924v-1.852l-1.595-.927-1.6.923v1.852Zm47.14,3.919,2.319,1.349,0,2.692-2.322,1.343-2.319-1.348,0-2.692Zm15.216-53.465,1.854,1.078,0,2.152-1.857,1.073-1.853-1.077,0-2.152Zm0,4.07,1.655-.957,0-1.919-1.653-.962-1.655.958,0,1.919ZM227.793,142.3l2.87,1.669,0,3.332-2.874,1.663-2.872-1.669,0-3.332Zm-.007,6.573,2.8-1.618,0-3.241-2.792-1.625-2.8,1.619,0,3.24Zm.111-37.927,0-2.324,2.006-1.161,2,1.165,0,2.325-2.006,1.161Zm3.958-2.289-1.949-1.133-1.952,1.129,0,2.262,1.949,1.133,1.952-1.129Zm20.7,45.958,3.494,2.03,0,4.053-3.5,2.022-3.493-2.031,0-4.052Zm-.008,7.667,3.119-1.8,0-3.614-3.115-1.812-3.119,1.8,0,3.614Zm25.177-21.219,6.528,3.8-.008,7.575-6.536,3.78-6.529-3.795.008-7.574Zm-.015,14.331,5.828-3.371.008-6.755-5.821-3.383-5.83,3.371-.007,6.754Zm8.491-41.977,1.428.83,0,1.658-1.43.827-1.429-.83,0-1.657Zm0,3.27,1.391-.8,0-1.613-1.389-.808-1.393.805v1.613Zm61.881-29.854,3.466,2.015,0,4.022-3.47,2.008L344.6,92.863l0-4.022Zm11.642,18.789,2.675,1.554,0,3.1-2.678,1.549-2.675-1.555,0-3.1Zm-.006,5.87,2.388-1.381,0-2.768-2.385-1.385-2.388,1.38,0,2.768Zm83.24-21.066,5.221,3.035-.006,6.057-5.228,3.023-5.221-3.034.007-6.057Zm-.013,11.459,4.663-2.7.006-5.4-4.657-2.707-4.66,2.7-.006,5.4Z" transform="translate(1.001 70.013)" fill="#0cb8b6" fill-rule="evenodd" opacity="0.122"/>
    </g>
  </g>
</svg>
