<svg xmlns="http://www.w3.org/2000/svg" width="130" height="40" viewBox="0 0 130 40">
  <g id="white_footer_logo" transform="translate(-303.831 -44.001)">
    <g id="Group_2874" data-name="Group 2874" transform="translate(303.831 44.001)">
      <path id="Path_2541" data-name="Path 2541" d="M64.238,112a2.391,2.391,0,0,1-1.554-1.1.143.143,0,0,0-.192-.08,24.8,24.8,0,0,1-3.066.624c-.916.144-1.837.241-2.759.331a19.975,19.975,0,0,1-3.023.067,12.222,12.222,0,0,1-5.631-1.425,5.91,5.91,0,0,1-2.991-3.938,8.741,8.741,0,0,1,.419-4.87,23.833,23.833,0,0,1,4.884-7.845c.926-1.058,1.735-2.216,2.687-3.253a46.614,46.614,0,0,1,6.315-5.76q2.136-1.6,4.4-3.016a.808.808,0,0,1,.456-.124h6.888a1.329,1.329,0,0,1,1.2.687c.075.124.16.241.241.365v9.16A2.048,2.048,0,0,1,70.351,92.9c-2.755-.037-5.51-.006-8.265-.022-.367,0-.443.105-.442.453.014,2.849,0,5.7.01,8.549a1.684,1.684,0,0,1-1.91,1.932c-2.512.017-5.024.009-7.538,0a2.919,2.919,0,0,1-.864-.131,1.59,1.59,0,0,1-1.043-1.6q0-2.674,0-5.348c0-.138.061-.294-.085-.44a22.664,22.664,0,0,0-1.836,2.585,11.764,11.764,0,0,0-1.925,5.017,5.083,5.083,0,0,0,1.987,4.816,9.691,9.691,0,0,0,4.744,1.816,20.264,20.264,0,0,0,4.131.2c1.4-.093,2.785-.251,4.17-.434.853-.113.829-.132,1.069-.942a2.013,2.013,0,1,1,3.747,1.45,2.4,2.4,0,0,1-1.572,1.2Zm1.135-2.069c0-.642-.283-.92-.913-.933a.882.882,0,0,0-.945.948,1.011,1.011,0,0,0,.941,1,.908.908,0,0,0,.917-1.011Z" transform="translate(-39.435 -72.004)" fill="#f16823"/>
      <path id="Path_2542" data-name="Path 2542" d="M28.844,82.58c.2-.277.269-.649.6-.84a1.894,1.894,0,0,1,.987-.3c3.309.009,6.618.023,9.926-.012.836-.009,1.673.055,2.513-.033a8.47,8.47,0,0,0,1.1-.029c.1-.022.213,0,.241.095s-.066.16-.131.229A49.482,49.482,0,0,0,40.4,86.062,44.63,44.63,0,0,0,36.384,92.4a.506.506,0,0,1-.529.321c-1.769-.011-3.538-.006-5.308-.006a1.553,1.553,0,0,1-1.6-1.02c-.018-.047-.068-.08-.1-.122Z" transform="translate(-28.84 -69.695)" fill="#fff"/>
      <path id="Path_2543" data-name="Path 2543" d="M66.5,53.976a5.76,5.76,0,1,1,4.084-1.688A5.76,5.76,0,0,1,66.5,53.976Z" transform="translate(-49.962 -42.455)" fill="#fff"/>
    </g>
    <g id="Group_3070" data-name="Group 3070" transform="translate(338.673 49.773)">
      <path id="Path_2998" data-name="Path 2998" d="M49.777-43.592h2.787v-3.187l3.419-3.792,4.452,6.977h3.3l-5.889-9.047,5.228-5.6H59.544L53.31-51.118a2.84,2.84,0,0,0-.69,1.034h-.144q.086-.661.086-2.873V-63.7H49.777Z" transform="translate(-36.074 64.016)" fill="#fff"/>
      <path id="Path_2999" data-name="Path 2999" d="M2.366-33.533A12,12,0,0,0,8.14-32.1a7.735,7.735,0,0,0,4.452-1.175,4.023,4.023,0,0,0,1.723-3.562,3.573,3.573,0,0,0-1.192-3.016A8.473,8.473,0,0,0,9.434-41.2l-.287-.058q-.919-.144-1.379-.23-2.326-.488-2.326-1.781,0-1.723,3.332-1.723a8.63,8.63,0,0,1,4.043,1l1.034-2.183a11.883,11.883,0,0,0-5.228-1.149,8.126,8.126,0,0,0-4.25,1.02,3.468,3.468,0,0,0-1.693,3.2A3.342,3.342,0,0,0,4-40.126a10.132,10.132,0,0,0,3.878,1.363l.977.187q.23.043.819.172a2.74,2.74,0,0,1,.79.258q.2.129.532.359a1.083,1.083,0,0,1,.431.517,2.1,2.1,0,0,1,.1.69,1.727,1.727,0,0,1-.977,1.638,5.18,5.18,0,0,1-2.442.517,8.612,8.612,0,0,1-4.739-1.322Z" transform="translate(-2.366 52.492)" fill="#fff"/>
      <path id="Path_3000" data-name="Path 3000" d="M111.909-39.192a8.34,8.34,0,0,0-2.183-5.788,7.128,7.128,0,0,0-5.487-2.341,7.755,7.755,0,0,0-5.614,2.183,7.25,7.25,0,0,0-2.255,5.429,7.192,7.192,0,0,0,2.3,5.487,8.036,8.036,0,0,0,5.716,2.155,8.209,8.209,0,0,0,4.051-1.02,7.849,7.849,0,0,0,2.959-2.887l-2.241-1.293a5.373,5.373,0,0,1-4.711,2.7,5.444,5.444,0,0,1-3.591-1.293,4.491,4.491,0,0,1-1.666-3.332Zm-12.553-2.1A4.585,4.585,0,0,1,101.12-43.9a5.231,5.231,0,0,1,3.174-.977,4.962,4.962,0,0,1,3.006.979,4.325,4.325,0,0,1,1.709,2.614Z" transform="translate(-69.221 52.808)" fill="#fff"/>
      <path id="Path_3001" data-name="Path 3001" d="M-152.938-63.7v5.544a10.212,10.212,0,0,0,.115,2.355h-.144a5.245,5.245,0,0,0-2.212-2.01,6.9,6.9,0,0,0-3.128-.722,7.348,7.348,0,0,0-5.444,2.155,7.423,7.423,0,0,0-2.14,5.458,7.4,7.4,0,0,0,2.155,5.458,7.4,7.4,0,0,0,5.458,2.155,6.231,6.231,0,0,0,5.286-2.528h.144a12.257,12.257,0,0,0-.115,1.407v.833h2.787V-63.7ZM-163.05-50.917a4.921,4.921,0,0,1,1.422-3.634,4.921,4.921,0,0,1,3.634-1.422,4.835,4.835,0,0,1,3.577,1.465,4.908,4.908,0,0,1,1.451,3.591,4.917,4.917,0,0,1-1.465,3.619,4.883,4.883,0,0,1-3.591,1.465,4.859,4.859,0,0,1-3.609-1.436,4.972,4.972,0,0,1-1.418-3.649Z" transform="translate(211.583 63.7)" fill="#f16823"/>
      <path id="Path_3002" data-name="Path 3002" d="M-105.015-39.708a7.171,7.171,0,0,0,2.3,5.444,7.9,7.9,0,0,0,5.63,2.165,7.9,7.9,0,0,0,5.63-2.165,7.171,7.171,0,0,0,2.3-5.444,7.171,7.171,0,0,0-2.3-5.444,7.9,7.9,0,0,0-5.63-2.165,7.9,7.9,0,0,0-5.63,2.165,7.171,7.171,0,0,0-2.3,5.444Zm2.873,0a4.892,4.892,0,0,1,1.436-3.634,4.934,4.934,0,0,1,3.619-1.422,4.934,4.934,0,0,1,3.619,1.422,4.892,4.892,0,0,1,1.436,3.634,4.972,4.972,0,0,1-1.424,3.649,4.892,4.892,0,0,1-3.634,1.436,4.892,4.892,0,0,1-3.634-1.436,4.972,4.972,0,0,1-1.419-3.649Z" transform="translate(168.343 52.491)" fill="#f16823"/>
      <path id="Path_3003" data-name="Path 3003" d="M-34.575-36.406a5.027,5.027,0,0,1-3.935,1.752,4.885,4.885,0,0,1-3.609-1.422,4.921,4.921,0,0,1-1.422-3.634,4.9,4.9,0,0,1,1.407-3.619,4.9,4.9,0,0,1,3.623-1.411A4.905,4.905,0,0,1-34.6-43.045l2.068-1.666a7.692,7.692,0,0,0-5.975-2.614,7.817,7.817,0,0,0-5.614,2.183,7.205,7.205,0,0,0-2.284,5.429,7.193,7.193,0,0,0,2.284,5.444A7.846,7.846,0,0,0-38.51-32.1a7.994,7.994,0,0,0,6.062-2.663Z" transform="translate(127.607 52.492)" fill="#f16823"/>
    </g>
  </g>
</svg>
